# xmcd
#
# Track frame offsets: 
#        150
#        16745
#        30255
#        46444
#        60999
#        79448
#        126151
#        149400
#        172540
#        199955
#        212423
#        252641
#
# Disc length: 3890 seconds
#
# Revision: 0
# Processed by: cddbd v1.4PL0 Copyright (c) Steve Scherf et al.
# Submitted via: ExactAudioCopy v0.90b4
#
DISCID=9d0f300c
DTITLE=Van Morrison - Hungry For Your Love, disc 1
DYEAR=1996
DGENRE=Celtic
TTITLE0=Did Ye Get Healed ?
TTITLE1=It's All In The Game > Make It Real One More Time
TTITLE2=Hungry For Your Love
TTITLE3=Days Like This
TTITLE4=Melancholia
TTITLE5=See Me Through > Soldier Of Fortune > Thank You (Falletinme Be
TTITLE5=Mice Elf Agin)
TTITLE6=Raincheck
TTITLE7=Slim Slow Slider
TTITLE8=Ballerina
TTITLE9=Tore Down A La Rimbaud
TTITLE10=Tupelo Honey > Why Must I Always Explain ?
TTITLE11=Moondance
EXTD=
EXTT0=
EXTT1=
EXTT2=
EXTT3=
EXTT4=
EXTT5=
EXTT6=
EXTT7=
EXTT8=
EXTT9=
EXTT10=
EXTT11=
PLAYORDER=
